<svg xmlns="http://www.w3.org/2000/svg" xmlns:xlink="http://www.w3.org/1999/xlink" viewBox="0 0 64 64"><defs><style>.cls-1{fill:#008000;}.cls-2{fill:#fcfcfc;}.cls-3,.cls-4{opacity:0.5;}.cls-3{fill:url(#Unbenannter_Verlauf_5);}.cls-4{fill:url(#Unbenannter_Verlauf_5-2);}</style><linearGradient id="Unbenannter_Verlauf_5" x1="19.17" y1="55.81" x2="19.17" y2="64" gradientUnits="userSpaceOnUse"><stop offset="0" stop-color="#fff"/><stop offset="1" stop-color="#fff" stop-opacity="0"/></linearGradient><linearGradient id="Unbenannter_Verlauf_5-2" x1="46.05" y1="55.81" x2="46.05" xlink:href="#Unbenannter_Verlauf_5"/></defs><title>Warenkorb</title><g id="Ebene_2" data-name="Ebene 2"><g id="Ebene_1-2" data-name="Ebene 1"><path class="cls-1" d="M61.17,0H0V64H61.17A2.83,2.83,0,0,0,64,61.17V2.83A2.83,2.83,0,0,0,61.17,0Z"/><path class="cls-2" d="M12.34,19.53a2.37,2.37,0,0,1,0-3.19,2.13,2.13,0,0,1,1.54-.64,3.25,3.25,0,0,1,1.67.54l.06,0,1.54,1.52a4.43,4.43,0,1,0-4.35,3.62A4.61,4.61,0,0,0,14,21.24Z"/><path class="cls-2" d="M19.12,20.92H54.76s1.13.08.82,1.77-6,17.37-6,17.37H22.7V42H49.89L50,45.13H16V42.19l2.13-17.94L13,18.94s-.87-1.13,0-2,2.13,0,2.13,0Z"/><circle class="cls-2" cx="19.17" cy="50.22" r="4.09"/><circle class="cls-2" cx="46.05" cy="50.22" r="4.09"/><circle class="cls-3" cx="19.17" cy="59.91" r="4.09"/><circle class="cls-4" cx="46.05" cy="59.91" r="4.09"/></g></g></svg>