<svg xmlns="http://www.w3.org/2000/svg" viewBox="0 0 278.53 37.97"><defs><style>.cls-1{fill:#123f6c;}.cls-2{fill:#fff;}.cls-3{fill:#0f3f6b;}.cls-4{fill:#cb2327;}.cls-5{fill:#5c5c5b;}</style></defs><title>Element 8</title><g id="Ebene_2" data-name="Ebene 2"><g id="Ebene_1-2" data-name="Ebene 1"><rect class="cls-1" x="243.59" y="0.43" width="34.94" height="34.94"/><path class="cls-2" d="M272.17,32.4A3.39,3.39,0,0,1,268.78,29V6.79a1,1,0,0,0-2.1,0V29a3.4,3.4,0,0,1-6.79,0V6.79a1,1,0,1,0-2.1,0V29A3.4,3.4,0,0,1,251,29V6.79a1,1,0,1,0-2.1,0V32.4h-2.34V6.79a3.4,3.4,0,1,1,6.79,0V29a1,1,0,1,0,2.09,0V6.79a3.4,3.4,0,1,1,6.79,0V29a1.05,1.05,0,1,0,2.1,0V6.79a3.4,3.4,0,1,1,6.79,0V29a1.05,1.05,0,0,0,2.1,0V3.39h2.35V29A3.4,3.4,0,0,1,272.17,32.4Z"/><path class="cls-3" d="M13,22.2H9.73V13.73H3.3V22.2H0V2.43H3.3v8H9.73v-8H13Z"/><path class="cls-3" d="M21,22.47a5.26,5.26,0,0,1-4.25-2,8,8,0,0,1-1.65-5.28v-.38a10.47,10.47,0,0,1,.7-4,6,6,0,0,1,2-2.69,4.7,4.7,0,0,1,2.89-.94,4.49,4.49,0,0,1,3.84,1.9,8.91,8.91,0,0,1,1.41,5.39v1.6H18.32a4.11,4.11,0,0,0,.93,2.31,2.52,2.52,0,0,0,2,.87,3.23,3.23,0,0,0,2.87-1.64l1.56,2.16a5.07,5.07,0,0,1-1.93,1.94A5.31,5.31,0,0,1,21,22.47ZM20.64,10.4a1.83,1.83,0,0,0-1.53.79,4.67,4.67,0,0,0-.75,2.27h4.41v-.32a3.28,3.28,0,0,0-.57-2A1.83,1.83,0,0,0,20.64,10.4Z"/><path class="cls-3" d="M27.45,3.71a2.19,2.19,0,0,1,.48-1.46,1.76,1.76,0,0,1,2.59,0A2.15,2.15,0,0,1,31,3.71a2.15,2.15,0,0,1-.49,1.46,1.63,1.63,0,0,1-1.29.57,1.6,1.6,0,0,1-1.29-.57A2.15,2.15,0,0,1,27.45,3.71ZM30.82,22.2H27.63V7.51h3.19Z"/><path class="cls-3" d="M36.55,19h5.82V22.2H32.5V19.81l5.59-9.14H32.66V7.51h9.53V9.82Z"/><path class="cls-3" d="M51.06,20.71a3.73,3.73,0,0,1-3.26,1.76,3.41,3.41,0,0,1-2.91-1.35,6.73,6.73,0,0,1-1-4V7.51H47V17c0,1.53.57,2.3,1.7,2.3A2.22,2.22,0,0,0,51,17.92V7.51h3.18V22.2h-3Z"/><path class="cls-3" d="M59.32,7.51l.1,1.7a3.89,3.89,0,0,1,3.42-2,3.13,3.13,0,0,1,2.81,1.37,7.49,7.49,0,0,1,.95,4.1V22.2H63.42V12.8A3,3,0,0,0,63,11a1.75,1.75,0,0,0-1.46-.56,2.15,2.15,0,0,0-2,1.41V22.2H56.33V7.51Z"/><path class="cls-3" d="M68.32,14.75a10.09,10.09,0,0,1,1.3-5.45,4,4,0,0,1,3.51-2.06,3.46,3.46,0,0,1,3.05,1.65l.13-1.38h2.88v14.2a7.5,7.5,0,0,1-.71,3.36,5.08,5.08,0,0,1-2,2.17,5.85,5.85,0,0,1-3,.75,5.49,5.49,0,0,1-2.55-.65A4.71,4.71,0,0,1,69,25.68l1.41-2.39a3.48,3.48,0,0,0,2.88,1.64,2.46,2.46,0,0,0,2-.83,3.58,3.58,0,0,0,.7-2.37v-.79a3.4,3.4,0,0,1-2.89,1.53,4,4,0,0,1-3.47-2.07,10.09,10.09,0,0,1-1.32-5.49Zm3.17.29a6.34,6.34,0,0,0,.65,3.13,2,2,0,0,0,1.78,1.14A2.14,2.14,0,0,0,76,18V11.77a2.15,2.15,0,0,0-2.06-1.34,2,2,0,0,0-1.79,1.15A7.17,7.17,0,0,0,71.49,15Z"/><path class="cls-3" d="M87.81,18.14A1.3,1.3,0,0,0,87.23,17a5.44,5.44,0,0,0-1.85-.74c-2.83-.74-4.24-2.22-4.24-4.46a4.43,4.43,0,0,1,1.31-3.26,4.64,4.64,0,0,1,3.44-1.31,5,5,0,0,1,3.62,1.31A4.59,4.59,0,0,1,90.87,12H87.69a2.21,2.21,0,0,0-.44-1.4A1.66,1.66,0,0,0,85.88,10a1.64,1.64,0,0,0-1.24.45,1.54,1.54,0,0,0-.44,1.14,1.28,1.28,0,0,0,.5,1.06,4.69,4.69,0,0,0,1.68.69,10.89,10.89,0,0,1,2,.66,4,4,0,0,1,2.52,4,4.15,4.15,0,0,1-1.4,3.25,5.76,5.76,0,0,1-6.25.58A4.7,4.7,0,0,1,81.43,20a4.9,4.9,0,0,1-.66-2.48h3a2.27,2.27,0,0,0,.62,1.6,2.18,2.18,0,0,0,1.56.56,2,2,0,0,0,1.38-.43A1.45,1.45,0,0,0,87.81,18.14Z"/><path class="cls-3" d="M93,22.2V2.43h4.92a6.41,6.41,0,0,1,3.78,1.17A7.78,7.78,0,0,1,104.32,7a12.33,12.33,0,0,1,.93,4.92v.91a12.38,12.38,0,0,1-.92,4.9A7.6,7.6,0,0,1,101.74,21,6.49,6.49,0,0,1,98,22.2Zm3.3-16.47v13.2h1.59a3.34,3.34,0,0,0,3-1.56,8.34,8.34,0,0,0,1-4.47V11.85a8.42,8.42,0,0,0-1-4.56,3.31,3.31,0,0,0-3-1.56Z"/><path class="cls-3" d="M107.13,3.71a2.19,2.19,0,0,1,.48-1.46,1.61,1.61,0,0,1,1.3-.57,1.63,1.63,0,0,1,1.3.57,2.19,2.19,0,0,1,.48,1.46,2.15,2.15,0,0,1-.49,1.46,1.63,1.63,0,0,1-1.29.57,1.6,1.6,0,0,1-1.29-.57A2.15,2.15,0,0,1,107.13,3.71ZM110.5,22.2h-3.18V7.51h3.18Z"/><path class="cls-3" d="M119.23,18.14a1.32,1.32,0,0,0-.58-1.13,5.44,5.44,0,0,0-1.85-.74c-2.83-.74-4.24-2.22-4.24-4.46a4.39,4.39,0,0,1,1.31-3.26,4.61,4.61,0,0,1,3.43-1.31,5,5,0,0,1,3.62,1.31A4.55,4.55,0,0,1,122.28,12h-3.17a2.21,2.21,0,0,0-.44-1.4,1.7,1.7,0,0,0-1.38-.55,1.66,1.66,0,0,0-1.24.45,1.58,1.58,0,0,0-.44,1.14,1.3,1.3,0,0,0,.5,1.06,4.75,4.75,0,0,0,1.69.69,10.89,10.89,0,0,1,2,.66,4,4,0,0,1,2.51,4,4.14,4.14,0,0,1-1.39,3.25,5.21,5.21,0,0,1-3.61,1.24,5.26,5.26,0,0,1-2.65-.66,4.77,4.77,0,0,1-1.82-1.8,4.9,4.9,0,0,1-.66-2.48h3a2.24,2.24,0,0,0,.63,1.6,2.18,2.18,0,0,0,1.56.56,2,2,0,0,0,1.38-.43A1.45,1.45,0,0,0,119.23,18.14Z"/><path class="cls-3" d="M129,19.31a1.85,1.85,0,0,0,1.43-.6,2.3,2.3,0,0,0,.57-1.59h3a6,6,0,0,1-.66,2.74A4.69,4.69,0,0,1,129,22.47a4.73,4.73,0,0,1-4-2,9.19,9.19,0,0,1-1.47-5.53v-.26A9.11,9.11,0,0,1,125,9.26a4.68,4.68,0,0,1,4-2,4.47,4.47,0,0,1,3.58,1.57A6.26,6.26,0,0,1,133.94,13h-3a3,3,0,0,0-.57-1.86,1.74,1.74,0,0,0-1.45-.72,1.82,1.82,0,0,0-1.68,1,7,7,0,0,0-.56,3.24v.41a7,7,0,0,0,.56,3.27A1.83,1.83,0,0,0,129,19.31Z"/><path class="cls-3" d="M135.06,14.72a10.36,10.36,0,0,1,.68-3.9,5.9,5.9,0,0,1,2-2.65,5.18,5.18,0,0,1,6.9.89A8.26,8.26,0,0,1,146.3,14l0,1a8.83,8.83,0,0,1-1.53,5.43,5.15,5.15,0,0,1-8.2,0,9,9,0,0,1-1.53-5.54Zm3.17.28a6.47,6.47,0,0,0,.64,3.2,2,2,0,0,0,1.82,1.11,2,2,0,0,0,1.81-1.1,7.17,7.17,0,0,0,.64-3.5,6.46,6.46,0,0,0-.64-3.18,2,2,0,0,0-1.83-1.13,2,2,0,0,0-1.8,1.12A7.24,7.24,0,0,0,138.23,15Z"/><path class="cls-3" d="M155.16,20.71a3.7,3.7,0,0,1-3.25,1.76A3.42,3.42,0,0,1,149,21.12a6.73,6.73,0,0,1-1-4V7.51h3.17V17c0,1.53.57,2.3,1.7,2.3a2.22,2.22,0,0,0,2.22-1.39V7.51h3.18V22.2h-3Z"/><path class="cls-3" d="M163.43,7.51l.1,1.7a3.89,3.89,0,0,1,3.42-2,3.14,3.14,0,0,1,2.81,1.37,7.5,7.5,0,0,1,.94,4.1V22.2h-3.17V12.8a3,3,0,0,0-.44-1.81,1.75,1.75,0,0,0-1.46-.56,2.13,2.13,0,0,0-2,1.41V22.2h-3.18V7.51Z"/><path class="cls-3" d="M176.68,3.9V7.51h2v2.88h-2v7.33a2.07,2.07,0,0,0,.25,1.17,1.14,1.14,0,0,0,1,.35,4.31,4.31,0,0,0,.93-.09v3a5.26,5.26,0,0,1-1.92.35c-2.23,0-3.36-1.39-3.41-4.17V10.39h-1.73V7.51h1.73V3.9Z"/><path class="cls-3" d="M210.18,20.18a2.22,2.22,0,0,1,.51-1.52,1.69,1.69,0,0,1,2.57,0,2.22,2.22,0,0,1,.51,1.52,2.24,2.24,0,0,1-.5,1.5,1.67,1.67,0,0,1-1.3.58,1.63,1.63,0,0,1-1.28-.58A2.2,2.2,0,0,1,210.18,20.18Z"/><path class="cls-3" d="M215.34,14.65a10.33,10.33,0,0,1,1.25-5.47,3.82,3.82,0,0,1,3.41-2,3.42,3.42,0,0,1,2.87,1.61V1.25h3.18V22.11h-2.87L223,20.55A3.53,3.53,0,0,1,220,22.38a3.82,3.82,0,0,1-3.37-2.05A10.7,10.7,0,0,1,215.34,14.65Zm3.17.29a6.88,6.88,0,0,0,.59,3.17,1.81,1.81,0,0,0,1.69,1.1,2.13,2.13,0,0,0,2.08-1.53V11.87a2.12,2.12,0,0,0-2.06-1.54Q218.52,10.33,218.51,14.94Z"/><path class="cls-3" d="M233.75,22.38a5.28,5.28,0,0,1-4.26-2,8.06,8.06,0,0,1-1.64-5.29v-.38a10.66,10.66,0,0,1,.69-4,5.94,5.94,0,0,1,2-2.69,4.74,4.74,0,0,1,2.9-1A4.54,4.54,0,0,1,237.24,9a9,9,0,0,1,1.4,5.4V16h-7.57a4,4,0,0,0,.93,2.31,2.49,2.49,0,0,0,2,.86,3.19,3.19,0,0,0,2.86-1.64l1.57,2.16a5.19,5.19,0,0,1-1.94,1.95A5.28,5.28,0,0,1,233.75,22.38Zm-.36-12.07a1.83,1.83,0,0,0-1.54.79,4.66,4.66,0,0,0-.75,2.26h4.42v-.31a3.47,3.47,0,0,0-.57-2A1.88,1.88,0,0,0,233.39,10.31Z"/><path class="cls-4" d="M194.14,18.26V22.2h-12A11.92,11.92,0,0,1,183.29,18a27,27,0,0,1,3.85-5.3A28.42,28.42,0,0,0,190,9.05a5.47,5.47,0,0,0,.71-2.59,3.37,3.37,0,0,0-.62-2.18,2.24,2.24,0,0,0-3.41,0A4.67,4.67,0,0,0,185.94,7l-3.42-.42c.2-2.34.84-4,1.91-5a5.67,5.67,0,0,1,4-1.52,5.2,5.2,0,0,1,4.16,1.76,6.51,6.51,0,0,1,1.52,4.39A9.24,9.24,0,0,1,193.7,9a11.73,11.73,0,0,1-1.37,2.82,24.53,24.53,0,0,1-2.24,2.83c-1.09,1.22-1.77,2-2.06,2.44a7.37,7.37,0,0,0-.7,1.17Z"/><path class="cls-4" d="M203,22.2V17.75h-7.32V14l7.76-14h2.88V14h2.23v3.72h-2.23V22.2ZM203,14V6.47L198.86,14Z"/><path class="cls-5" d="M95.24,35.41H92.79V28h2.45a3.34,3.34,0,0,1,1.32.26,3.15,3.15,0,0,1,1,.74,3.38,3.38,0,0,1,.66,1.16,5.06,5.06,0,0,1,0,3.08,3.38,3.38,0,0,1-.66,1.16,3.15,3.15,0,0,1-1,.74A3.34,3.34,0,0,1,95.24,35.41Zm0-6.2H93.9v5h1.34a1.78,1.78,0,0,0,1.51-.67,2.9,2.9,0,0,0,.53-1.84,3,3,0,0,0-.53-1.85A1.8,1.8,0,0,0,95.24,29.21Z"/><path class="cls-5" d="M103.25,33h-3.13a1.72,1.72,0,0,0,.51,1.15,1.48,1.48,0,0,0,1,.37,2.93,2.93,0,0,0,1.41-.38l.08,1a3.18,3.18,0,0,1-1.56.4,2.59,2.59,0,0,1-1.07-.21,2.21,2.21,0,0,1-.8-.57,2.65,2.65,0,0,1-.49-.87A3.4,3.4,0,0,1,99,32.79a3.27,3.27,0,0,1,.16-1.06,2.57,2.57,0,0,1,.45-.87,2.11,2.11,0,0,1,.71-.58,2.12,2.12,0,0,1,1.75,0,1.94,1.94,0,0,1,.64.46,2.17,2.17,0,0,1,.43.71,2.69,2.69,0,0,1,.15.92c0,.09,0,.18,0,.29S103.27,32.85,103.25,33Zm-2-1.9c-.61,0-1,.36-1.12,1.08h2a1.29,1.29,0,0,0-.22-.77A.81.81,0,0,0,101.29,31.09Z"/><path class="cls-5" d="M106.69,30.05l-.2,1.17h-.4a1,1,0,0,0-.54.17,1.16,1.16,0,0,0-.37.4v3.62h-1.09V30.17h1l.06.65a1.75,1.75,0,0,1,1.34-.77Z"/><path class="cls-5" d="M113.49,29.21h-2.93V31h2.26v1.18h-2.26v3.26h-1.11V28h4Z"/><path class="cls-5" d="M117.72,34.54l-.11,1h-.32a1.11,1.11,0,0,1-1.09-.65,1.7,1.7,0,0,1-1.42.65,1.47,1.47,0,0,1-.56-.11,1.21,1.21,0,0,1-.43-.32,1.48,1.48,0,0,1-.29-.49,1.91,1.91,0,0,1-.1-.64,1.41,1.41,0,0,1,.27-.89,2.18,2.18,0,0,1,.68-.57,2.91,2.91,0,0,1,.87-.31,5.71,5.71,0,0,1,.85-.1,1.1,1.1,0,0,0-.21-.76,1,1,0,0,0-.69-.21,2.47,2.47,0,0,0-1.26.42l-.11-1a3.14,3.14,0,0,1,1.66-.5,1.53,1.53,0,0,1,1.27.53,2.81,2.81,0,0,1,.41,1.71v1.31c0,.2,0,.36,0,.48a.83.83,0,0,0,.06.27.26.26,0,0,0,.13.14.78.78,0,0,0,.24,0Zm-1.65-.42V32.9a2.53,2.53,0,0,0-1.13.28.79.79,0,0,0-.43.72c0,.46.21.69.65.69a1,1,0,0,0,.48-.13A1.3,1.3,0,0,0,116.07,34.12Z"/><path class="cls-5" d="M120.34,35.52a2.13,2.13,0,0,1-1-.21,2,2,0,0,1-.71-.58,2.43,2.43,0,0,1-.45-.86,3.69,3.69,0,0,1-.16-1.07,3.83,3.83,0,0,1,.16-1.09,2.43,2.43,0,0,1,.45-.86,2.08,2.08,0,0,1,.71-.57,2.13,2.13,0,0,1,1-.21,2.49,2.49,0,0,1,1.4.37l-.11,1a2.09,2.09,0,0,0-1.2-.39,1.11,1.11,0,0,0-1,.45,2.13,2.13,0,0,0-.34,1.25,2.11,2.11,0,0,0,.34,1.25,1.1,1.1,0,0,0,1,.47,2.21,2.21,0,0,0,1.21-.38l.1,1A2.3,2.3,0,0,1,120.34,35.52Z"/><path class="cls-5" d="M126.61,35.41h-1.06V32.6a2.27,2.27,0,0,0-.23-1.16.84.84,0,0,0-.76-.35,1.12,1.12,0,0,0-1,.51v3.81h-1.06V27.5h1.06v3a1.53,1.53,0,0,1,1.09-.47c1.29,0,1.94.84,1.94,2.53Z"/><path class="cls-5" d="M131.73,35.41h-1.06V32.6a2.27,2.27,0,0,0-.23-1.16.84.84,0,0,0-.76-.35,1.12,1.12,0,0,0-1,.51v3.81h-1.06V27.5h1.06v3a1.56,1.56,0,0,1,1.09-.47c1.3,0,1.95.84,1.95,2.53Z"/><path class="cls-5" d="M136.71,34.54l-.1,1h-.32a1.1,1.1,0,0,1-1.09-.65,1.71,1.71,0,0,1-1.43.65,1.42,1.42,0,0,1-.55-.11,1.16,1.16,0,0,1-.44-.32,1.31,1.31,0,0,1-.28-.49,1.91,1.91,0,0,1-.11-.64,1.36,1.36,0,0,1,.28-.89,2,2,0,0,1,.68-.57,2.91,2.91,0,0,1,.87-.31,5.57,5.57,0,0,1,.85-.1,1.15,1.15,0,0,0-.22-.76.91.91,0,0,0-.68-.21,2.47,2.47,0,0,0-1.26.42l-.11-1a3.12,3.12,0,0,1,1.66-.5,1.52,1.52,0,0,1,1.26.53,2.73,2.73,0,0,1,.42,1.71v1.31c0,.2,0,.36,0,.48a.83.83,0,0,0,.06.27.27.27,0,0,0,.14.14.78.78,0,0,0,.24,0Zm-2.53-5.42h-.84V28h.84Zm.89,5V32.9a2.58,2.58,0,0,0-1.14.28.79.79,0,0,0-.43.72q0,.69.66.69a1,1,0,0,0,.48-.13A1.3,1.3,0,0,0,135.07,34.12Zm.6-5h-.84V28h.84Z"/><path class="cls-5" d="M141.47,35.41h-1.06V32.57a2.09,2.09,0,0,0-.24-1.13.88.88,0,0,0-.77-.35,1.15,1.15,0,0,0-1,.51v3.81h-1.06V30.17h1l0,.39a1.7,1.7,0,0,1,1.18-.49c1.31,0,2,.84,2,2.5Z"/><path class="cls-5" d="M146.71,35.41h-1l0-.41a1.68,1.68,0,0,1-1.23.52,2,2,0,0,1-.93-.21,2.09,2.09,0,0,1-.71-.58,2.74,2.74,0,0,1-.44-.87,3.62,3.62,0,0,1-.16-1.06,3.69,3.69,0,0,1,.16-1.07,2.75,2.75,0,0,1,.45-.87,2.21,2.21,0,0,1,.71-.58,2,2,0,0,1,.92-.21,1.6,1.6,0,0,1,1.19.46v-3h1.07Zm-2.19-4.32a1,1,0,0,0-.89.46,2.49,2.49,0,0,0,0,2.48,1,1,0,0,0,.89.48,1,1,0,0,0,.87-.46,2.06,2.06,0,0,0,.33-1.25,2.13,2.13,0,0,0-.33-1.25A1,1,0,0,0,144.52,31.09Z"/><path class="cls-5" d="M149.46,34.54l-.1,1H149a1.09,1.09,0,0,1-.9-.38,1.49,1.49,0,0,1-.3-1V27.5h1.07v6.14c0,.21,0,.38,0,.5a.58.58,0,0,0,.08.27.28.28,0,0,0,.18.11Z"/><path class="cls-5" d="M154.05,33h-3.13a1.72,1.72,0,0,0,.51,1.15,1.48,1.48,0,0,0,1,.37,2.93,2.93,0,0,0,1.41-.38l.07,1a3.11,3.11,0,0,1-1.55.4,2.63,2.63,0,0,1-1.08-.21,2.26,2.26,0,0,1-.79-.57,2.65,2.65,0,0,1-.49-.87,3.4,3.4,0,0,1-.17-1.08,3.57,3.57,0,0,1,.15-1.06,2.78,2.78,0,0,1,.46-.87,2.18,2.18,0,0,1,.7-.58,2.06,2.06,0,0,1,.94-.21,2,2,0,0,1,.82.17,1.94,1.94,0,0,1,.64.46,2.17,2.17,0,0,1,.43.71,2.69,2.69,0,0,1,.15.92c0,.09,0,.18,0,.29S154.07,32.85,154.05,33Zm-2-1.9c-.61,0-1,.36-1.12,1.08H153a1.29,1.29,0,0,0-.22-.77A.81.81,0,0,0,152.09,31.09Z"/><path class="cls-5" d="M157.49,30.05l-.21,1.17h-.39a1,1,0,0,0-.54.17,1.07,1.07,0,0,0-.37.4v3.62h-1.09V30.17h1l0,.65a1.76,1.76,0,0,1,1.35-.77Z"/><path class="cls-5" d="M167.19,35.41h-1.07v-2.9a2,2,0,0,0-.22-1.08.77.77,0,0,0-.72-.34c-.68,0-1,.38-1,1.15v3.17H163.1V32.57a2.05,2.05,0,0,0-.23-1.17.88.88,0,0,0-.75-.31,1.09,1.09,0,0,0-1,.5v3.82h-1.06V30.17h.86l.08.45a1.77,1.77,0,0,1,1.26-.55,1.58,1.58,0,0,1,1.47.88,1.51,1.51,0,0,1,.59-.62,1.9,1.9,0,0,1,1-.26,1.58,1.58,0,0,1,1.37.65,3,3,0,0,1,.47,1.79Z"/><path class="cls-5" d="M169.28,29.26h-1.07V28h1.07Zm0,6.15h-1.07V30.17h1.07Z"/><path class="cls-5" d="M172.8,34.54l-.1,1h-.81a1.33,1.33,0,0,1-.54-.11,1,1,0,0,1-.39-.28,1.22,1.22,0,0,1-.23-.42,1.78,1.78,0,0,1-.08-.53v-3H170l.09-1h.61V29l1.07-.13v1.32h1.09v1h-1.09v2.49c0,.22,0,.39,0,.51a.53.53,0,0,0,.1.27.38.38,0,0,0,.23.11l.44,0Z"/><path class="cls-5" d="M178.21,35.41h-2.45V28h2.45a3.34,3.34,0,0,1,1.32.26,3,3,0,0,1,1,.74,3.4,3.4,0,0,1,.67,1.16,5.27,5.27,0,0,1,0,3.08,3.4,3.4,0,0,1-.67,1.16,3,3,0,0,1-1,.74A3.34,3.34,0,0,1,178.21,35.41Zm0-6.2h-1.34v5h1.34a1.8,1.8,0,0,0,1.52-.67,2.9,2.9,0,0,0,.52-1.84,3,3,0,0,0-.52-1.85A1.82,1.82,0,0,0,178.21,29.21Z"/><path class="cls-5" d="M183.33,29.26h-1.07V28h1.07Zm0,6.15h-1.07V30.17h1.07Z"/><path class="cls-5" d="M185.73,35.52a2.61,2.61,0,0,1-1.58-.41l.1-1.06a1.24,1.24,0,0,0,.28.19,2.26,2.26,0,0,0,.35.17,2.77,2.77,0,0,0,.41.12,1.92,1.92,0,0,0,.41,0,.88.88,0,0,0,.59-.17.57.57,0,0,0,.19-.43.51.51,0,0,0-.21-.42,1.78,1.78,0,0,0-.49-.3l-.59-.24a1.94,1.94,0,0,1-.52-.25,1.17,1.17,0,0,1-.46-1.05,2.17,2.17,0,0,1,.1-.62,1.57,1.57,0,0,1,.31-.53,1.5,1.5,0,0,1,.54-.36,2,2,0,0,1,.77-.14,2.47,2.47,0,0,1,1.41.38l-.1,1A1.71,1.71,0,0,0,186,31a1.05,1.05,0,0,0-.59.15.51.51,0,0,0-.23.46.59.59,0,0,0,.09.34.83.83,0,0,0,.24.21,1.51,1.51,0,0,0,.34.14l.4.11a1.57,1.57,0,0,1,1.3,1.6,2.4,2.4,0,0,1-.07.52,1.15,1.15,0,0,1-.26.5,1.39,1.39,0,0,1-.56.38A2.38,2.38,0,0,1,185.73,35.52Z"/><path class="cls-5" d="M190.32,35.52a2.13,2.13,0,0,1-1-.21,2,2,0,0,1-.71-.58,2.43,2.43,0,0,1-.45-.86A3.69,3.69,0,0,1,188,32.8a3.83,3.83,0,0,1,.16-1.09,2.43,2.43,0,0,1,.45-.86,2.08,2.08,0,0,1,.71-.57,2.13,2.13,0,0,1,1-.21,2.49,2.49,0,0,1,1.4.37l-.11,1a2.09,2.09,0,0,0-1.2-.39,1.11,1.11,0,0,0-.95.45,2.47,2.47,0,0,0,0,2.5,1.1,1.1,0,0,0,.95.47,2.21,2.21,0,0,0,1.21-.38l.1,1A2.3,2.3,0,0,1,190.32,35.52Z"/><path class="cls-5" d="M192.16,32.8a3.38,3.38,0,0,1,.16-1.07,2.59,2.59,0,0,1,.47-.87,2.16,2.16,0,0,1,1.71-.79,2.19,2.19,0,0,1,1,.21,2.33,2.33,0,0,1,.74.58,2.8,2.8,0,0,1,.47.87,3.12,3.12,0,0,1,.17,1.07,3.32,3.32,0,0,1-.16,1.06,2.8,2.8,0,0,1-.47.87,2.19,2.19,0,0,1-.74.58,2.24,2.24,0,0,1-1,.21,2.16,2.16,0,0,1-1-.21,2.1,2.1,0,0,1-.74-.58,2.64,2.64,0,0,1-.47-.86A3.38,3.38,0,0,1,192.16,32.8Zm1.09,0a2.11,2.11,0,0,0,.33,1.25,1.15,1.15,0,0,0,1.85,0,2.11,2.11,0,0,0,.33-1.25,2.13,2.13,0,0,0-.33-1.25,1.18,1.18,0,0,0-1.85,0A2.13,2.13,0,0,0,193.25,32.79Z"/><path class="cls-5" d="M201.62,35.41h-1L200.6,35a1.51,1.51,0,0,1-1.12.5c-1.26,0-1.9-.82-1.9-2.46V30.17h1.07V33a2.17,2.17,0,0,0,.23,1.16.81.81,0,0,0,.74.37,1.07,1.07,0,0,0,.94-.49V30.17h1.06Z"/><path class="cls-5" d="M206.84,35.41h-1.06V32.57a2.09,2.09,0,0,0-.24-1.13.88.88,0,0,0-.77-.35,1.15,1.15,0,0,0-1,.51v3.81H202.7V30.17h1l0,.39a1.7,1.7,0,0,1,1.18-.49c1.31,0,2,.84,2,2.5Z"/><path class="cls-5" d="M210.25,34.54l-.09,1h-.81a1.35,1.35,0,0,1-.55-.11,1.08,1.08,0,0,1-.62-.7,1.79,1.79,0,0,1-.07-.53v-3h-.71l.1-1h.61V29l1.06-.13v1.32h1.09v1h-1.09v2.49c0,.22,0,.39,0,.51a.45.45,0,0,0,.09.27.39.39,0,0,0,.24.11l.44,0Z"/><path class="cls-5" d="M213.25,35.52A1.65,1.65,0,0,1,212,35V38H211v-7.8h.9l.1.44a1.75,1.75,0,0,1,1.27-.54,2,2,0,0,1,.93.21,2.29,2.29,0,0,1,.7.58,2.74,2.74,0,0,1,.44.87,3.38,3.38,0,0,1,.16,1.07,3.74,3.74,0,0,1-.15,1.07,2.57,2.57,0,0,1-.43.86,2,2,0,0,1-.7.58A2,2,0,0,1,213.25,35.52Zm-.08-4.43a1,1,0,0,0-.86.45,2.16,2.16,0,0,0-.31,1.25,2.19,2.19,0,0,0,.31,1.27,1,1,0,0,0,.86.45,1,1,0,0,0,.89-.48,2.49,2.49,0,0,0,0-2.48A1,1,0,0,0,213.17,31.09Z"/><path class="cls-5" d="M218.88,30.05l-.21,1.17h-.39a1,1,0,0,0-.54.17,1.07,1.07,0,0,0-.37.4v3.62h-1.09V30.17h1l.06.65a1.75,1.75,0,0,1,1.34-.77Z"/><path class="cls-5" d="M223.24,33h-3.13a1.72,1.72,0,0,0,.51,1.15,1.48,1.48,0,0,0,1,.37,2.93,2.93,0,0,0,1.41-.38l.07,1a3.11,3.11,0,0,1-1.55.4,2.59,2.59,0,0,1-1.07-.21,2.21,2.21,0,0,1-.8-.57,2.65,2.65,0,0,1-.49-.87,3.4,3.4,0,0,1-.17-1.08,3.57,3.57,0,0,1,.15-1.06,2.78,2.78,0,0,1,.46-.87,2.18,2.18,0,0,1,.7-.58,2.06,2.06,0,0,1,.94-.21,2,2,0,0,1,.82.17,1.94,1.94,0,0,1,.64.46,2.17,2.17,0,0,1,.43.71,2.69,2.69,0,0,1,.15.92c0,.09,0,.18,0,.29S223.26,32.85,223.24,33Zm-2-1.9c-.61,0-1,.36-1.12,1.08h2.05a1.29,1.29,0,0,0-.22-.77A.81.81,0,0,0,221.28,31.09Z"/><path class="cls-5" d="M225.15,29.26h-1.07V28h1.07Zm0,6.15h-1.07V30.17h1.07Z"/><path class="cls-5" d="M227.56,35.52a2.62,2.62,0,0,1-1.59-.41l.1-1.06a1.52,1.52,0,0,0,.28.19,2.26,2.26,0,0,0,.35.17,2.77,2.77,0,0,0,.41.12,2,2,0,0,0,.41,0,.88.88,0,0,0,.59-.17.57.57,0,0,0,.19-.43.51.51,0,0,0-.21-.42,1.87,1.87,0,0,0-.48-.3L227,33a1.94,1.94,0,0,1-.52-.25,1.17,1.17,0,0,1-.46-1.05,2.17,2.17,0,0,1,.1-.62,1.57,1.57,0,0,1,.31-.53,1.5,1.5,0,0,1,.54-.36,2,2,0,0,1,.77-.14,2.47,2.47,0,0,1,1.41.38l-.1,1a1.71,1.71,0,0,0-1.24-.53,1.05,1.05,0,0,0-.59.15.51.51,0,0,0-.23.46.59.59,0,0,0,.09.34.83.83,0,0,0,.24.21,1.51,1.51,0,0,0,.34.14l.4.11a1.56,1.56,0,0,1,1.3,1.6,1.91,1.91,0,0,1-.07.52,1.15,1.15,0,0,1-.26.5,1.39,1.39,0,0,1-.56.38A2.35,2.35,0,0,1,227.56,35.52Z"/><path class="cls-5" d="M234.07,33h-3.13a1.77,1.77,0,0,0,.52,1.15,1.44,1.44,0,0,0,1,.37,2.86,2.86,0,0,0,1.4-.38l.08,1a3.18,3.18,0,0,1-1.56.4,2.59,2.59,0,0,1-1.07-.21,2.17,2.17,0,0,1-.79-.57,2.68,2.68,0,0,1-.5-.87,3.4,3.4,0,0,1-.16-1.08,3.57,3.57,0,0,1,.15-1.06,2.57,2.57,0,0,1,.45-.87,2.21,2.21,0,0,1,.71-.58,2.06,2.06,0,0,1,.94-.21,2,2,0,0,1,.81.17,1.84,1.84,0,0,1,.64.46,1.88,1.88,0,0,1,.43.71,2.69,2.69,0,0,1,.16.92c0,.09,0,.18,0,.29A2.93,2.93,0,0,1,234.07,33Zm-1.95-1.9c-.62,0-1,.36-1.13,1.08h2.06a1.3,1.3,0,0,0-.23-.77A.79.79,0,0,0,232.12,31.09Z"/><path class="cls-5" d="M239.06,35.41H238V32.57a2.09,2.09,0,0,0-.24-1.13.89.89,0,0,0-.78-.35,1.13,1.13,0,0,0-1,.51v3.81h-1.06V30.17h1l0,.39a1.72,1.72,0,0,1,1.18-.49c1.31,0,2,.84,2,2.5Z"/></g></g></svg>