<svg xmlns="http://www.w3.org/2000/svg" viewBox="0 0 27.68 27.68"><defs><style>.cls-1{fill:#133f6d;}.cls-2{fill:#fff;}</style></defs><title>Element 1</title><g id="Ebene_2" data-name="Ebene 2"><g id="Ebene_2-2" data-name="Ebene 2"><rect class="cls-1" width="27.68" height="27.68"/></g><g id="Ebene_1-2" data-name="Ebene 1"><path class="cls-2" d="M24.67,10.83,23,10.53c-.15-.3-.15-.6-.3-.9l.9-1.36.76-1L20.46,3.31l-1.06.75L18.05,5c-.3-.15-.6-.15-.9-.3L16.85,3l-.3-1.2H11.13L10.83,3l-.3,1.65c-.3.15-.6.15-.9.3l-1.36-.9-1-.6L3.46,7.22l.75,1,.91,1.36c-.31.3-.31.6-.46.9L3,10.83l-1.2.3v5.42l1.2.3,1.65.3c.15.3.15.6.3.9l-.9,1.35-.75,1.06,3.91,3.91,1-.76,1.36-.9c.3.15.6.15.9.3l.3,1.66.3,1.2h5.42l.3-1.2.3-1.66c.3-.15.6-.15.9-.3l1.35.9,1.06.76,3.91-3.91-.76-1.06-.9-1.35a2.13,2.13,0,0,0,.3-.9l1.66-.3,1.2-.3V11.13Zm-.3,4.51-2.56.45a7,7,0,0,1-.9,2.26l1.35,2.11-2.1,2.1-2.11-1.35a7,7,0,0,1-2.26.9l-.45,2.56h-3l-.45-2.56a7.07,7.07,0,0,1-2.25-.9L7.52,22.26l-2.1-2.1,1.35-2.11a7,7,0,0,1-.9-2.26l-2.56-.45v-3l2.56-.45a7.07,7.07,0,0,1,.9-2.25L5.27,7.52l2.1-2.1L9.48,6.77a7.07,7.07,0,0,1,2.25-.9l.6-2.56h3l.45,2.56a7,7,0,0,1,2.26.9l2.11-1.35,2.1,2.1L20.91,9.63a7.07,7.07,0,0,1,.9,2.25l2.56.45Z"/><path class="cls-2" d="M13.84,8.57a5.27,5.27,0,1,0,5.26,5.27A5.34,5.34,0,0,0,13.84,8.57Zm0,9a3.76,3.76,0,1,1,3.76-3.76A3.72,3.72,0,0,1,13.84,17.6Z"/></g></g></svg>